<svg xmlns="http://www.w3.org/2000/svg" width="398.929" height="800.054" viewBox="0 0 398.929 800.054" xmlns:xlink="http://www.w3.org/1999/xlink" role="img" artist="Katerina Limpitsouni" source="https://undraw.co/"><g transform="translate(-704 -139.973)"><g transform="translate(-108.365)"><path d="M665.294,269.316h-4.4V148.89a69.7,69.7,0,0,0-69.7-69.7H336.062a69.7,69.7,0,0,0-69.7,69.7V809.551a69.7,69.7,0,0,0,69.7,69.7H591.2a69.7,69.7,0,0,0,69.7-69.7V355.035h4.4Z" transform="translate(546 60.78)" fill="#090814"/><path d="M592.274,95.686h-33.3a24.729,24.729,0,0,1-22.9,34.069H389.9a24.729,24.729,0,0,1-22.9-34.069H335.9a52.051,52.051,0,0,0-52.051,52.051V807.429A52.051,52.051,0,0,0,335.9,859.479H592.264a52.051,52.051,0,0,0,52.051-52.051V147.737a52.051,52.051,0,0,0-52.039-52.051Z" transform="translate(547.746 62.421)" fill="#fff"/></g><g transform="translate(-601.884 -72.618)"><path d="M252.9,384.574H540.481V234.6H252.9Z" transform="translate(1111.143 179.621)" fill="#fff"/><path d="M546.79,387.674H246.9V228.6H546.79Zm-293.736-4.55H540.635V233.149H253.054Z" transform="translate(1110.988 181.07)" fill="#e6e6e6"/><g transform="translate(1485.39 431.221)"><path d="M354.562,317.29A22.605,22.605,0,1,1,377,294.685,22.55,22.55,0,0,1,354.562,317.29Zm0-44.473a21.869,21.869,0,1,0,21.706,21.868A21.812,21.812,0,0,0,354.562,272.816Z" transform="translate(-332.119 -272.08)" fill="#090814"/><path d="M175.3,112.182V134.63l18.316-11.378Z" transform="translate(-158.959 -100.609)" fill="#302a9c"/></g><g transform="translate(1417.789 494.167)"><path d="M891.308,411.831H713.964a1.371,1.371,0,1,1,0-2.742H891.308a1.371,1.371,0,1,1,0,2.742Z" transform="translate(-712.592 -401.493)" fill="#e6e6e6"/><path d="M748.215,460.609a.747.747,0,0,1-.747-.747V446.411a.747.747,0,1,1,1.494,0v13.451A.747.747,0,0,1,748.215,460.609Z" transform="translate(-721.407 -410.737)" fill="#ccc"/><path d="M829.715,460.609a.747.747,0,0,1-.747-.747V446.411a.747.747,0,1,1,1.495,0v13.451A.747.747,0,0,1,829.715,460.609Z" transform="translate(-742.006 -410.737)" fill="#090814"/><path d="M836.715,460.609a.747.747,0,0,1-.747-.747V446.411a.747.747,0,1,1,1.495,0v13.451A.747.747,0,0,1,836.715,460.609Z" transform="translate(-743.776 -410.737)" fill="#090814"/><path d="M759.564,460.771a1.729,1.729,0,0,1-.867-.235l-8.888-5.994-.05-.031a1.694,1.694,0,0,1-.792-1.455,1.716,1.716,0,0,1,.867-1.5l8.818-5.952a1.733,1.733,0,0,1,2.645,1.474v11.959a1.741,1.741,0,0,1-1.733,1.736Zm-.075-1.5a.229.229,0,0,0,.195-.027.232.232,0,0,0,.12-.207V447.075a.239.239,0,0,0-.359-.207l-8.818,5.952c-.148.088-.164.183-.164.235a.231.231,0,0,0,.119.207l.044.028Z" transform="translate(-721.786 -410.656)" fill="#ccc"/><path d="M916.215,460.609a.747.747,0,0,1-.747-.747V446.411a.747.747,0,1,1,1.495,0v13.451A.747.747,0,0,1,916.215,460.609Z" transform="translate(-763.869 -410.737)" fill="#ccc"/><path d="M901.188,460.767a1.7,1.7,0,0,1-.853-.232,1.716,1.716,0,0,1-.867-1.5V447.075a1.733,1.733,0,0,1,2.6-1.5l8.907,6.007a1.69,1.69,0,0,1,.822,1.474,1.715,1.715,0,0,1-.841,1.487l-8.844,5.967A1.837,1.837,0,0,1,901.188,460.767Zm-.225-1.733a.239.239,0,0,0,.358.207l8.852-5.974a.252.252,0,0,0,.13-.212h0a.232.232,0,0,0-.119-.207l-8.907-6.007a.222.222,0,0,0-.195.027.232.232,0,0,0-.12.207Z" transform="translate(-759.825 -410.656)" fill="#ccc"/><circle cx="8.967" cy="8.967" r="8.967" transform="translate(41.753)" fill="#090814"/></g></g><g transform="translate(-93.047 20.499)"><path d="M812.379,570.337H730.968a6.412,6.412,0,0,1-6.4-6.4v-40.52a6.411,6.411,0,0,1,6.4-6.4h81.411a6.411,6.411,0,0,1,6.4,6.4v40.52a6.412,6.412,0,0,1-6.4,6.4Z" transform="translate(329.237 23.745)" fill="#fff"/><path d="M812.133,570.844H730.721a7.166,7.166,0,0,1-7.158-7.158v-40.52a7.166,7.166,0,0,1,7.158-7.158h81.411a7.166,7.166,0,0,1,7.158,7.158v40.52A7.166,7.166,0,0,1,812.133,570.844Zm-81.411-53.329a5.657,5.657,0,0,0-5.651,5.651v40.52a5.657,5.657,0,0,0,5.651,5.651h81.411a5.657,5.657,0,0,0,5.651-5.651v-40.52a5.657,5.657,0,0,0-5.651-5.651Z" transform="translate(329.483 23.991)" fill="#ccc"/><path d="M774.311,563.988a2.737,2.737,0,0,1-1.32-.344,2.7,2.7,0,0,1-1.419-2.4V538.631a2.737,2.737,0,0,1,4.205-2.311l21.451,11.307a2.738,2.738,0,0,1,0,4.621l-21.451,11.307A2.724,2.724,0,0,1,774.311,563.988Z" transform="translate(317.647 19.088)" fill="#d6d6e3"/><circle cx="9.322" cy="9.322" r="9.322" transform="translate(1138.885 582.705)" fill="#302a9c"/><path d="M848.028,587.5l-.06,0a1.219,1.219,0,0,1-.9-.469l-1.558-2a1.22,1.22,0,0,1,.214-1.712l.056-.044a1.219,1.219,0,0,1,1.712.214.889.889,0,0,0,1.347.066L852,580.208a1.221,1.221,0,0,1,1.724-.047l.052.049a1.219,1.219,0,0,1,.047,1.724l-4.909,5.181a1.218,1.218,0,0,1-.885.381Z" transform="translate(299.481 8.256)" fill="#fff"/></g><g transform="translate(756.004 257.387)"><g transform="translate(7.813 13.881)"><path d="M221.822,286.909l1.515-9.47-10.227-4.167-1.515,14.394Z" transform="translate(-194.086 -254.451)" fill="#ed9da0"/><path d="M144.382,372.788q-1.317.642-2.681,1.157a31.731,31.731,0,0,1-5.615,1.552,32.389,32.389,0,0,1-13.447-.42c-.982-.241-1.972-.535-2.945-.878l-.308-.11a31.682,31.682,0,0,1-3.537-1.532c-.154-.077-.308-.156-.462-.239-.171-.087-.34-.179-.51-.274-.217-.119-.433-.243-.649-.368-.723-.418-1.433-.87-2.112-1.34l-.045-.03c-.04-.028-.08-.055-.119-.084.025-.132.049-.253.07-.36.084-.42.139-.651.139-.651l4.579-9.46,1.276-2.636.622-.256,4.7-1.932h11.487l3.624,1.5s.018.069.055.2a119.706,119.706,0,0,0,5.738,15.856c.045.1.092.2.139.3Z" transform="translate(-106.367 -326.334)" fill="#302a9c"/><circle cx="10.429" cy="10.429" r="10.429" transform="translate(14.722 5.174)" fill="#ed9da0"/><path d="M77.579,370.32l-.018.09-3.18,15.118-.028.132-.044.208c-.171-.087-.34-.18-.51-.274-.218-.12-.433-.243-.65-.369-.722-.418-1.432-.87-2.112-1.339l-.045-.031-.118-.083q-.779-.544-1.52-1.131l-.01-.008a32,32,0,0,1-2.544-2.288q-.786-.786-1.51-1.618l.073-.306.007-.031.091-.39a8.909,8.909,0,0,1,6.994-6.7l4.581-.877Z" transform="translate(-65.29 -339.884)" fill="#302a9c"/><path d="M343.047,380.215a32.056,32.056,0,0,1-4.324,3.1c-.149.09-.3.179-.453.268q-.973.562-1.979,1.05-1.317.642-2.681,1.157l-.07-.331-3.591-17.075.465.089,4.66.893a8.908,8.908,0,0,1,6.993,6.7l.891,3.775.089.371Z" transform="translate(-298.278 -338.182)" fill="#302a9c"/><path d="M164.7,134.382c-.271,1.01-1.634,5.524-5.125,6.474-.686.187-2.321.4-1.888,0l.289-.271c3.788-3.562,5.334-5.74,4.628-10.574-.448-3.078-5.553-5.872-8.425-6.15a4.8,4.8,0,0,0-3.777,1.348c-1.684,1.739-1.407,7.078-2.34,10.214a4.024,4.024,0,0,1-1.07,1.935c-.3.258-.493-.07-.636-.607-.3-1.141-.381-3.23-.811-2.639-1.243,1.711-.059,3.979.3,4.854.074.179.149.351.224.515v0c.043.094.089.187.132.276v0c1.194,2.435,2.629,3.307,3.894,4.824a9.424,9.424,0,0,1,1.387,2.208,9.847,9.847,0,0,1,.637,1.892,13.341,13.341,0,0,1-.368,6.742c-.487,1.609-1.323,4.374-3.777,5.934-3.081,1.96-5.892.233-7.237,2.094-.017.022-.032.043-.047.065a2.3,2.3,0,0,0-.134.226,31.681,31.681,0,0,1-3.537-1.532c-.154-.077-.308-.156-.462-.239-.171-.087-.34-.179-.51-.274-.007-.131-.013-.261-.018-.393a27.458,27.458,0,0,1,.614-7.23,39.2,39.2,0,0,1,1.268-4.668,15.251,15.251,0,0,1,1.373-2.878,13.048,13.048,0,0,1,1.676-2.166c1.462-1.527,2.761-2.164,2.967-3.777.294-2.3-2.1-2.994-2.967-6.474-.59-2.38-1.208-5.81-.609-8.122a12.919,12.919,0,0,1,2.7-5.936c.395-.445,3.634-3.539,7.388-4.048,1.729-.232,3.271,1.982,5.362,2.459,2.4.547,3.78.86,5.125,1.888,2.273,1.736,2.914,4.332,3.507,6.744a13.706,13.706,0,0,1,.269,7.284Z" transform="translate(-127.542 -115.99)" fill="#2f2e41"/></g><path d="M54.341,9.324A31.833,31.833,0,0,0,0,31.833,31.591,31.591,0,0,0,7.813,52.724q.723.831,1.51,1.618a32,32,0,0,0,2.544,2.288l.01.008A31.835,31.835,0,0,0,63.665,31.833,31.625,31.625,0,0,0,54.341,9.324ZM52.528,55.683a31.606,31.606,0,0,1-6.769,4.5q-1.291.637-2.645,1.157a31.5,31.5,0,0,1-26.238-1.687q-.285-.154-.567-.314a31.4,31.4,0,0,1-2.863-1.832,31.6,31.6,0,1,1,39.081-1.827Z" fill="#3f3d56"/></g><path d="M938.155,194.2H841.773a3.145,3.145,0,1,1,0-6.29h96.382a3.145,3.145,0,0,1,0,6.29Z" transform="translate(-8.289 91.957)" fill="#302a9c"/><path d="M883.553,213.572h-41.78a3.145,3.145,0,0,1,0-6.29h41.78a3.145,3.145,0,0,1,0,6.29Z" transform="translate(-8.289 85.002)" fill="#302a9c"/><g transform="translate(756.004 657.609)"><path d="M262.108,220.592H246.19V199.05l13.763,7.54Z" transform="translate(-216.726 -175.228)" fill="#2f2e41"/><path d="M206.225,312.513l-.467-4.719,9.323-1.743,5.505,13.4-9.574,11.011-6.822-13.4Z" transform="translate(-179.752 -269.422)" fill="#9f616a"/><ellipse cx="10.334" cy="10.334" rx="10.334" ry="10.334" transform="translate(22.071 20.894)" fill="#9f616a"/><path d="M138.259,365.7c-.116.121-.235.241-.353.359q-.564.564-1.15,1.1a31.843,31.843,0,0,1-41.317,1.2l-.01-.008c-.171-.138-.34-.278-.509-.42.03-.086.062-.171.095-.255a14.646,14.646,0,0,1,7.567-8.046,11.244,11.244,0,0,1,1.808-.685l2.552-4.6,1.8,3.351,1.324,2.47,5.431,10.133,4.685-11.666,1.452-3.617.372-.926,1.77,1.378,1.676,1.3,3.374.744,2.737.6,3.717.821c1.5,1.224,2.418,3.553,2.929,6.447C138.224,365.491,138.242,365.595,138.259,365.7Z" transform="translate(-83.56 -311.712)" fill="#e6e6e6"/><path d="M224.369,134.8a7.8,7.8,0,0,1,12.608-1.1c.957,1.111,1.584,2.472,2.517,3.6,2.007,2.435,5.43,3.859,6.307,6.89a9.824,9.824,0,0,1,0,4.1l-.5,3.506a5.325,5.325,0,0,0,.088,2.721c.4,1,1.357,1.656,1.976,2.538a4.376,4.376,0,0,1-.179,5.122c-.5.617-1.166,1.083-1.691,1.68a2.429,2.429,0,0,0-.7,2.177c.422,1.464,2.717,1.815,2.969,3.317a1.894,1.894,0,0,1-1.1,1.886,4,4,0,0,1-2.287.267,9.393,9.393,0,0,1-7.362-13.334c1.038-2.2,2.966-4.142,2.945-6.573a8.757,8.757,0,0,0-1.213-3.745l-3.648-7.269c-.651-1.3-1.407-2.7-2.748-3.254a6.154,6.154,0,0,0-3.32-.088,6.234,6.234,0,0,1-3.322-.076,2.139,2.139,0,0,1-1.329-2.689" transform="translate(-197.4 -115.316)" fill="#2f2e41"/><path d="M152.445,161.967c-2-.657-4.236.4-5.588,2.008a15.965,15.965,0,0,0-2.632,5.682l-1.073,3.449-1.01,3.244a7.353,7.353,0,0,0-.47,3.915,12.53,12.53,0,0,1,.852,2.745,5.134,5.134,0,0,1-1.169,2.73,3.632,3.632,0,0,0-.807,2.811c.4,1.477,2.454,2.289,2.341,3.815-.038.509-.332.98-.327,1.491a1.736,1.736,0,0,0,1.112,1.47,4.583,4.583,0,0,0,1.916.262,29.676,29.676,0,0,0,5.928-.705,5.73,5.73,0,0,0,2.133-.818,2.228,2.228,0,0,0,1.007-1.95c-.126-1.188-1.4-1.862-2.049-2.868a10.6,10.6,0,0,1-.892-3.382,22.989,22.989,0,0,0-2-4.394,16.158,16.158,0,0,1,2.24-17.056,3.741,3.741,0,0,0,.874-1.334,1.112,1.112,0,0,0-.547-1.354" transform="translate(-123.665 -142.372)" fill="#2f2e41"/><path d="M54.346,9.324A31.835,31.835,0,0,0,0,31.835,31.593,31.593,0,0,0,7.814,52.728q.723.831,1.51,1.618c.123.123.248.247.373.366q.5.487,1.023.949.316.282.639.553c.169.142.337.282.509.42l.01.008a31.843,31.843,0,0,0,41.317-1.2q.587-.531,1.15-1.1c.118-.118.237-.238.353-.359q.485-.5.943-1.015a31.837,31.837,0,0,0-1.3-43.647Zm1.218,43.349c-.3.34-.606.675-.919,1q-.732.763-1.513,1.477c-.2.182-.4.359-.6.535a31.608,31.608,0,0,1-6.769,4.5q-1.291.637-2.645,1.157a31.5,31.5,0,0,1-26.24-1.687q-.285-.154-.567-.314a31.4,31.4,0,0,1-2.863-1.832q-1.029-.738-1.994-1.556c-.225-.19-.448-.383-.667-.58q-.535-.476-1.047-.979-.969-.95-1.854-1.978a31.6,31.6,0,1,1,47.677.253Z" transform="translate(0)" fill="#3f3d56"/></g><g transform="translate(756.004 556.272)"><g transform="translate(21.293 14.076)"><g transform="translate(0.778 6.818)"><path d="M199.288,313.794l2.154-5.505,11.13-1.676,1.2,12.187-11.25.239Z" transform="translate(-197.507 -290.812)" fill="#ed9da0"/><ellipse cx="10.334" cy="10.334" rx="10.334" ry="10.334" fill="#ed9da0"/></g><path d="M199.46,136.672c-.134.537-.405,1.817-.829,1.823-.346.005-.677-5.545-.331-6.463.4-1.055-.646-2.389-1.432-3.074-1.413-1.231-4.549,1.413-7.737.215-.085-.032-.068-.028-1.075-.43a22.76,22.76,0,0,0-3.439-1.29,4.663,4.663,0,0,0-4.084,2.579c-.778,1.558-.128,2.894-.86,6.663-.085.439-.219,1.065-.43,1.075-.385.017-.761-2.04-.86-2.579-.413-2.257-.811-4.434,0-6.878.088-.267.633-1.256,1.719-3.224,1.565-2.835,2.352-4.258,2.579-4.514,1.631-1.834,4.6-3.508,7.093-2.794,1.26.361,1.034.94,2.579,1.5,2.754,1.005,5.147-.224,5.588.645.234.46-.42.84-.43,1.719-.016,1.509,1.893,1.946,3.009,3.439.6.8,1.627.811-1.062,11.583Z" transform="translate(-177.913 -117.614)" fill="#2f2e41"/></g><path d="M126.974,362.352q-.625.7-1.3,1.374a31.842,31.842,0,0,1-42.467,2.3l-.01-.008q-1.122-.9-2.171-1.922.02-.158.043-.312c.1-.694.207-1.356.329-1.965,1-4.993,14.149-10.235,14.491-10.372l.007,0a8.9,8.9,0,0,0,8.944,6.158c4.939-.054,3.982-6.158,3.982-6.158l.172.036c1.427.3,11.331,2.479,15.239,5.448,1.191.9,2.045,2.832,2.659,5.129C126.923,362.152,126.948,362.252,126.974,362.352Z" transform="translate(-71.332 -309.38)" fill="#e6e6e6"/><path d="M54.346,9.324A31.835,31.835,0,0,0,0,31.835,31.593,31.593,0,0,0,7.814,52.728q.723.831,1.51,1.618c.123.123.248.246.373.366q1.048,1.016,2.171,1.922l.01.008a31.842,31.842,0,0,0,42.467-2.3q.671-.671,1.3-1.374a31.837,31.837,0,0,0-1.3-43.647Zm1.218,43.349a31.812,31.812,0,0,1-9.8,7.517q-1.291.637-2.645,1.157a31.5,31.5,0,0,1-26.24-1.688q-.285-.154-.567-.313A31.865,31.865,0,0,1,9.741,54.4q-.969-.95-1.854-1.978a31.6,31.6,0,1,1,47.677.252Z" transform="translate(0 0)" fill="#3f3d56"/></g><path d="M938.155,194.2H841.773a3.145,3.145,0,1,1,0-6.29h96.382a3.145,3.145,0,0,1,0,6.29Z" transform="translate(-8.289 390.845)" fill="#302a9c"/><path d="M883.553,213.572h-41.78a3.145,3.145,0,0,1,0-6.29h41.78a3.145,3.145,0,0,1,0,6.29Z" transform="translate(-8.289 383.891)" fill="#302a9c"/><path d="M938.155,194.2H841.773a3.145,3.145,0,1,1,0-6.29h96.382a3.145,3.145,0,0,1,0,6.29Z" transform="translate(-8.284 492.181)" fill="#302a9c"/><path d="M883.553,213.572h-41.78a3.145,3.145,0,0,1,0-6.29h41.78a3.145,3.145,0,0,1,0,6.29Z" transform="translate(-8.284 485.226)" fill="#302a9c"/><g transform="translate(-93.047 121.834)"><path d="M812.379,570.337H730.968a6.412,6.412,0,0,1-6.4-6.4v-40.52a6.411,6.411,0,0,1,6.4-6.4h81.411a6.411,6.411,0,0,1,6.4,6.4v40.52a6.412,6.412,0,0,1-6.4,6.4Z" transform="translate(329.237 23.745)" fill="#fff"/><path d="M812.133,570.844H730.721a7.166,7.166,0,0,1-7.158-7.158v-40.52a7.166,7.166,0,0,1,7.158-7.158h81.411a7.166,7.166,0,0,1,7.158,7.158v40.52A7.166,7.166,0,0,1,812.133,570.844Zm-81.411-53.329a5.657,5.657,0,0,0-5.651,5.651v40.52a5.657,5.657,0,0,0,5.651,5.651h81.411a5.657,5.657,0,0,0,5.651-5.651v-40.52a5.657,5.657,0,0,0-5.651-5.651Z" transform="translate(329.483 23.991)" fill="#ccc"/><path d="M774.311,563.988a2.737,2.737,0,0,1-1.32-.344,2.7,2.7,0,0,1-1.419-2.4V538.631a2.737,2.737,0,0,1,4.205-2.311l21.451,11.307a2.738,2.738,0,0,1,0,4.621l-21.451,11.307A2.724,2.724,0,0,1,774.311,563.988Z" transform="translate(317.647 19.088)" fill="#d6d6e3"/><circle cx="9.322" cy="9.322" r="9.322" transform="translate(1138.885 582.705)" fill="#302a9c"/><path d="M848.028,587.5l-.06,0a1.219,1.219,0,0,1-.9-.469l-1.558-2a1.22,1.22,0,0,1,.214-1.712l.056-.044a1.219,1.219,0,0,1,1.712.214.889.889,0,0,0,1.347.066L852,580.208a1.221,1.221,0,0,1,1.724-.047l.052.049a1.219,1.219,0,0,1,.047,1.724l-4.909,5.181a1.218,1.218,0,0,1-.885.381Z" transform="translate(299.481 8.256)" fill="#fff"/></g><g transform="translate(756.004 758.944)"><path d="M206.224,312.515l-.467-4.719,9.323-1.743,5.505,13.4-9.574,11.011-6.822-13.4Z" transform="translate(-179.752 -269.424)" fill="#ffb6b6"/><ellipse cx="10.334" cy="10.334" rx="10.334" ry="10.334" transform="translate(22.07 20.894)" fill="#ffb6b6"/><path d="M178.571,172.073l2.038.461s-1.6-5.081-1.058-5.566,1.877.279,1.877.279l1.4,1.57,1.706-1.737s1.852-2.3,2.577-2.95-.44-3.048-.44-3.048,10.758-2.9,6.755-8.119c0,0-2.347-4.091-3.111-2.758s-1.676-.784-1.676-.784l-2.783.529s-5.493-3.239-10.706,3.69,3.42,18.433,3.42,18.433Z" transform="translate(-152.716 -131.339)" fill="#2f2e41"/><path d="M149.891,385.3a31.861,31.861,0,0,1-38.511,1.145c.01-.1.019-.2.028-.3.142-1.556.269-3.069.353-4.323.324-4.87,11.686-8.116,11.686-8.116s.051.051.154.141a14.432,14.432,0,0,0,7.637,3.1c3.981.5,5.291-1.863,5.687-2.994a3.667,3.667,0,0,0,.156-.576l11.686,5.518c.762,1.089,1.06,3.435,1.119,6.071C149.887,385.079,149.89,385.186,149.891,385.3Z" transform="translate(-98.05 -328.694)" fill="#e6e6e6"/><path d="M54.346,9.324A31.835,31.835,0,0,0,0,31.835,31.593,31.593,0,0,0,7.814,52.728q.723.831,1.51,1.618c.123.123.248.247.373.366q.5.486,1.023.949.316.282.639.553c.169.142.338.282.509.42l.01.008q.713.574,1.452,1.106A31.861,31.861,0,0,0,51.841,56.6q.691-.56,1.355-1.162.587-.531,1.15-1.1c.118-.118.237-.238.353-.359q.485-.5.943-1.015a31.837,31.837,0,0,0-1.3-43.647Zm1.218,43.349c-.3.34-.606.675-.919,1q-.732.763-1.513,1.477c-.2.182-.4.359-.6.535q-.345.3-.7.589a31.518,31.518,0,0,1-6.071,3.915q-1.291.637-2.645,1.157a31.5,31.5,0,0,1-26.24-1.687q-.285-.154-.567-.314a31.4,31.4,0,0,1-2.863-1.832l-.091-.066q-.98-.707-1.9-1.49c-.225-.19-.448-.383-.667-.58q-.535-.476-1.047-.979-.969-.95-1.854-1.978a31.6,31.6,0,1,1,47.677.253Z" fill="#3f3d56"/></g><path d="M938.155,194.2H841.773a3.145,3.145,0,1,1,0-6.29h96.382a3.145,3.145,0,0,1,0,6.29Z" transform="translate(-8.284 590.452)" fill="#302a9c"/><path d="M883.553,213.572h-41.78a3.145,3.145,0,0,1,0-6.29h41.78a3.145,3.145,0,0,1,0,6.29Z" transform="translate(-8.284 583.497)" fill="#302a9c"/><g transform="translate(-93.047 220.104)"><path d="M812.379,570.337H730.968a6.412,6.412,0,0,1-6.4-6.4v-40.52a6.411,6.411,0,0,1,6.4-6.4h81.411a6.411,6.411,0,0,1,6.4,6.4v40.52a6.412,6.412,0,0,1-6.4,6.4Z" transform="translate(329.237 23.745)" fill="#fff"/><path d="M812.133,570.844H730.721a7.166,7.166,0,0,1-7.158-7.158v-40.52a7.166,7.166,0,0,1,7.158-7.158h81.411a7.166,7.166,0,0,1,7.158,7.158v40.52A7.166,7.166,0,0,1,812.133,570.844Zm-81.411-53.329a5.657,5.657,0,0,0-5.651,5.651v40.52a5.657,5.657,0,0,0,5.651,5.651h81.411a5.657,5.657,0,0,0,5.651-5.651v-40.52a5.657,5.657,0,0,0-5.651-5.651Z" transform="translate(329.483 23.991)" fill="#ccc"/><path d="M774.311,563.988a2.737,2.737,0,0,1-1.32-.344,2.7,2.7,0,0,1-1.419-2.4V538.631a2.737,2.737,0,0,1,4.205-2.311l21.451,11.307a2.738,2.738,0,0,1,0,4.621l-21.451,11.307A2.724,2.724,0,0,1,774.311,563.988Z" transform="translate(317.647 19.088)" fill="#d6d6e3"/><circle cx="9.322" cy="9.322" r="9.322" transform="translate(1138.885 582.705)" fill="#302a9c"/><path d="M848.028,587.5l-.06,0a1.219,1.219,0,0,1-.9-.469l-1.558-2a1.22,1.22,0,0,1,.214-1.712l.056-.044a1.219,1.219,0,0,1,1.712.214.889.889,0,0,0,1.347.066L852,580.208a1.221,1.221,0,0,1,1.724-.047l.052.049a1.219,1.219,0,0,1,.047,1.724l-4.909,5.181a1.218,1.218,0,0,1-.885.381Z" transform="translate(299.481 8.256)" fill="#fff"/></g></g></svg>